<svg width="100" height="97" viewBox="0 0 100 97" fill="none" xmlns="http://www.w3.org/2000/svg">
    <path
        d="M70.0368 0H22.8075C23.5365 14.7364 13.1742 23.9531 0 26.088C3.17639 59.2058 20.3601 83.7317 50.1453 96.0727C73.7339 86.2311 92.8963 67.3811 98.7284 40.8765C104.04 16.6109 92.3756 0 70.0368 0Z"
        fill="white" />
    <path
        d="M70.0368 0H22.8075C23.5365 14.7364 13.1742 23.9531 0 26.088C3.17639 59.2058 20.3601 83.7317 50.1453 96.0727C73.7339 86.2311 92.8963 67.3811 98.7284 40.8765C104.04 16.6109 92.3756 0 70.0368 0ZM95.2396 40.0954C90.1886 63.5278 73.2652 82.2216 50.1973 92.1673C23.0158 80.5553 7.39421 57.5916 3.95747 28.8999C16.0902 25.7756 25.5152 16.7151 26.4005 3.54089H70.245C91.6987 3.43675 99.7178 20.256 95.2396 40.0954Z"
        fill="#008AD1" />
    <path d="M47.543 57.2278H52.7502L50.3028 45.5117L47.543 57.2278Z" fill="#008AD1" />
    <path
        d="M70.2444 6.77022H29.2638C27.3371 18.6947 18.7973 27.3386 7.5498 31.192C11.4031 57.5924 26.3478 78.1088 50.1967 88.7314C71.2338 79.2023 87.1678 62.2268 92.1146 39.4714C96.02 21.7149 89.6152 6.66608 70.2444 6.77022ZM14.4754 33.7956H39.7303L51.7068 20.4651L46.6037 18.6426C46.031 18.4343 46.083 17.8615 46.6037 17.8615H52.1754L53.8938 12.0816C53.998 11.7171 54.5187 11.8212 54.5187 12.0816L55.0915 17.8615H60.4549C60.8715 17.8615 61.0277 18.3823 60.2987 18.6426L54.5708 20.5693L45.6665 33.7956H48.6346C48.3742 34.837 48.0097 36.1388 47.6452 37.6489L42.9587 37.9613L42.438 38.7424C41.0841 40.3566 37.8557 44.4182 35.8769 44.8869C34.6272 45.1472 33.4296 43.9496 33.8982 42.3874C34.3668 40.8773 35.5645 39.5755 36.2935 38.2737L14.3192 35.4619C13.3819 35.4619 13.486 33.7956 14.4754 33.7956ZM77.7428 52.4894C76.0765 52.4894 76.0244 53.1663 76.0244 54.8326V62.6434C76.0244 64.3618 76.1285 64.9866 77.7428 64.9866V66.5488H70.9213V64.9866C72.4835 64.9866 72.6918 64.4139 72.6918 62.6434V56.551L67.1722 63.3203V63.5807C67.1722 64.518 67.6929 64.9346 68.9426 64.9346V66.4967H51.9672V64.9346C53.2169 64.9346 53.998 64.8304 53.998 63.6328C53.998 62.9038 53.6855 61.0292 53.1648 58.9463H46.9683L46.1872 62.0706C45.6144 64.1535 45.7706 64.9346 48.0097 64.9346V66.4967H33.8982V64.9346C35.5645 64.9346 35.7207 64.3618 35.7207 62.5913V55.3533L31.3987 65.976L27.0768 54.9888V62.7476C27.0768 64.2576 27.233 64.9346 28.8993 64.9346V66.4967H23.64V64.9346C25.4105 64.9346 25.4625 63.8931 25.4625 62.383V54.7805C25.4625 53.4267 25.4625 52.4373 23.7442 52.4373V50.8751H29.3159L32.336 58.8942L35.3562 50.8751H40.7196V52.4373C39.0533 52.4373 39.0012 53.1142 39.0012 54.7805V62.5913C39.0012 64.1014 39.1575 64.518 39.6261 64.7263C40.6155 65.0908 42.5942 64.9866 43.167 63.8931C43.5836 63.1641 43.9481 62.0706 44.4167 60.4564L51.7068 32.0251L58.2679 59.8836C58.9969 62.9038 59.3614 63.6848 60.0383 64.3097C60.7152 64.8825 62.8502 65.2991 63.6313 64.4659C63.7875 64.3097 63.8916 63.9452 63.8916 62.6434V54.8326C63.8916 53.0622 63.7875 52.4894 62.1212 52.4894V50.9272H68.9947V52.4894C67.3284 52.4894 67.2242 53.2184 67.2242 54.8326V60.9771L72.7439 54.2078V53.9995C72.7439 53.2705 72.2752 52.5415 70.9734 52.5415V50.9793H77.7948L77.7428 52.4894ZM77.0658 35.4619L55.3518 37.0761L54.5708 33.7956H77.0658C78.2114 33.7956 78.2635 35.4098 77.0658 35.4619Z"
        fill="#008AD1" />
</svg>